<svg width="89" height="167" viewBox="0 0 89 167" fill="none" xmlns="http://www.w3.org/2000/svg">
<path d="M27.8258 110.555C22.7279 76.3914 59.0501 62.8107 59.0501 42.6518C59.0501 31.8297 52.0406 25.2516 40.9952 25.2516C31.6492 25.2516 24.2148 29.92 17.2052 37.1347L0 21.2198C11.0453 8.70013 26.1265 0 44.6062 0C70.3079 0 89 13.1563 89 40.5299C89 70.662 52.0406 80.6353 55.2267 110.555H27.8258ZM41.6325 167C30.3747 167 22.3031 158.3 22.3031 146.629C22.3031 134.958 30.3747 126.47 41.6325 126.47C52.6778 126.47 61.1742 134.958 61.1742 146.629C61.1742 158.3 52.6778 167 41.6325 167Z" fill="url(#paint0_linear_106_18)"/>
<defs>
<linearGradient id="paint0_linear_106_18" x1="44.5" y1="0" x2="44.5" y2="167" gradientUnits="userSpaceOnUse">
<stop stop-color="#0594F3"/>
<stop offset="1" stop-color="#0483F0"/>
</linearGradient>
</defs>
</svg>
